HIERARCHY
ROOT Hips
{
	OFFSET 0.000000 0.000000 0.000000
	CHANNELS 6 Xposition Yposition Zposition Zrotation Yrotation Xrotation 
	JOINT LHipJoint
	{
		OFFSET 0.000000 0.000000 0.000000
		CHANNELS 3 Zrotation Yrotation Xrotation
		JOINT LeftUpLeg
		{
			OFFSET 1.363060 -1.794630 0.839290
			CHANNELS 3 Zrotation Yrotation Xrotation
			JOINT LeftLeg
			{
				OFFSET 2.448110 -6.726130 0.000000
				CHANNELS 3 Zrotation Yrotation Xrotation
				JOINT LeftFoot
				{
					OFFSET 2.562200 -7.039590 0.000000
					CHANNELS 3 Zrotation Yrotation Xrotation
					JOINT LeftToeBase
					{
						OFFSET 0.157640 -0.433110 2.322550
						CHANNELS 3 Zrotation Yrotation Xrotation
						End Site
						{
							OFFSET 0.000000 0.000000 0.000000
						}
					}
				}
			}
		}
	}
	JOINT RHipJoint
	{
		OFFSET 0.000000 0.000000 0.000000
		CHANNELS 3 Zrotation Yrotation Xrotation
		JOINT RightUpLeg
		{
			OFFSET -1.305520 -1.794630 0.839290
			CHANNELS 3 Zrotation Yrotation Xrotation
			JOINT RightLeg
			{
				OFFSET -2.542530 -6.985550 0.000000
				CHANNELS 3 Zrotation Yrotation Xrotation
				JOINT RightFoot
				{
					OFFSET -2.568260 -7.056230 0.000000
					CHANNELS 3 Zrotation Yrotation Xrotation
					JOINT RightToeBase
					{
						OFFSET -0.164730 -0.452590 2.363150
						CHANNELS 3 Zrotation Yrotation Xrotation
						End Site
						{
							OFFSET 0.000000 0.000000 0.000000
						}
					}
				}
			}
		}
	}
	JOINT LowerBack
	{
		OFFSET 0.000000 0.000000 0.000000
		CHANNELS 3 Zrotation Yrotation Xrotation
		JOINT Spine
		{
			OFFSET 0.028270 2.035590 -0.193380
			CHANNELS 3 Zrotation Yrotation Xrotation
			JOINT Spine1
			{
				OFFSET 0.056720 2.048850 -0.042750
				CHANNELS 3 Zrotation Yrotation Xrotation
				JOINT Neck
				{
					OFFSET 0.000000 0.000000 0.000000
					CHANNELS 3 Zrotation Yrotation Xrotation
					JOINT Neck1
					{
						OFFSET -0.054170 1.746240 0.172020
						CHANNELS 3 Zrotation Yrotation Xrotation
						JOINT Head
						{
							OFFSET 0.104070 1.761360 -0.123970
							CHANNELS 3 Zrotation Yrotation Xrotation
							End Site
							{
								OFFSET 0.000000 0.000000 0.000000
							}
						}
					}
				}
				JOINT LeftShoulder
				{
					OFFSET 0.000000 0.000000 0.000000
					CHANNELS 3 Zrotation Yrotation Xrotation
					JOINT LeftArm
					{
						OFFSET 3.362410 1.200890 -0.311210
						CHANNELS 3 Zrotation Yrotation Xrotation
						JOINT LeftForeArm
						{
							OFFSET 4.983000 -0.000000 -0.000000
							CHANNELS 3 Zrotation Yrotation Xrotation
							JOINT LeftHand
							{
								OFFSET 3.483560 -0.000000 -0.000000
								CHANNELS 3 Zrotation Yrotation Xrotation
								JOINT LeftFingerBase
								{
									OFFSET 0.000000 0.000000 0.000000
									CHANNELS 3 Zrotation Yrotation Xrotation
									JOINT LeftHandIndex1
									{
										OFFSET 0.715260 -0.000000 -0.000000
										CHANNELS 3 Zrotation Yrotation Xrotation
										End Site
										{
											OFFSET 0.000000 0.000000 0.000000
										}
									}
								}
								JOINT LThumb
								{
									OFFSET 0.000000 0.000000 0.000000
									CHANNELS 3 Zrotation Yrotation Xrotation
									End Site
									{
										OFFSET 0.000000 0.000000 0.000000
									}
								}
							}
						}
					}
				}
				JOINT RightShoulder
				{
					OFFSET 0.000000 0.000000 0.000000
					CHANNELS 3 Zrotation Yrotation Xrotation
					JOINT RightArm
					{
						OFFSET -3.136600 1.374050 -0.404650
						CHANNELS 3 Zrotation Yrotation Xrotation
						JOINT RightForeArm
						{
							OFFSET -5.241900 -0.000000 -0.000000
							CHANNELS 3 Zrotation Yrotation Xrotation
							JOINT RightHand
							{
								OFFSET -3.444170 -0.000000 -0.000000
								CHANNELS 3 Zrotation Yrotation Xrotation
								JOINT RightFingerBase
								{
									OFFSET 0.000000 0.000000 0.000000
									CHANNELS 3 Zrotation Yrotation Xrotation
									JOINT RightHandIndex1
									{
										OFFSET -0.622530 -0.000000 -0.000000
										CHANNELS 3 Zrotation Yrotation Xrotation
										End Site
										{
											OFFSET 0.000000 0.000000 0.000000
										}
									}
								}
								JOINT RThumb
								{
									OFFSET 0.000000 0.000000 0.000000
									CHANNELS 3 Zrotation Yrotation Xrotation
									End Site
									{
										OFFSET 0.000000 0.000000 0.000000
									}
								}
							}
						}
					}
				}
			}
		}
	}
}
MOTION
Frames: 10
Frame Time: 0.008333
3.559388 17.214274 0.920796 -26.615508 -88.852023 37.943351 -11.663691 1.497673 1.597611 -3.056949 13.750683 -16.412576 -2.383893 -1.221220 -2.507301 0.244109 2.425492 3.770429 0.699300 -0.000000 -36.549200 9.105408 -1.893101 2.046065 4.421895 -5.553592 -11.044754 2.408761 1.527273 -1.181065 -0.370474 -6.750165 -0.731578 -2.243699 -0.000000 -43.566500 0.895210 -1.696377 -4.782365 -0.316630 -1.847354 -3.633307 -6.422025 -1.595935 -0.721248 7.600352 -7.087357 -0.217943 -3.921577 -0.370566 2.022623 0.000000 0.000000 0.000000 10.975989 8.308398 -3.072731 -85.610178 -24.350515 18.345137 -177.723292 -51.856055 179.972408 2.036531 -6.588613 -0.134543 -0.025465 1.183672 -0.000000 0.000000 0.000000 0.000000 0.000000 0.000000 0.000000 0.621955 -5.437643 -4.468648 88.363583 24.759975 27.899912 -178.550627 59.381713 179.824915 -11.996486 14.628330 -1.688410 0.170296 -1.121991 -0.000000 0.000000 0.000000 0.000000 0.000000 0.000000 0.000000 
3.563841 17.214563 0.919768 -21.212156 -88.612214 32.571364 -11.631443 1.544855 1.674890 -3.082213 13.469080 -16.535160 -2.384566 -1.205347 -2.493442 0.237587 2.326721 3.818819 0.683000 0.000000 -36.546001 9.130981 -1.847588 2.003256 4.426179 -5.710808 -11.061790 2.393568 1.544479 -1.123484 -0.375764 -6.948239 -0.796375 -2.297400 -0.000000 -43.522701 0.870241 -1.614169 -4.816381 -0.326530 -1.761404 -3.666728 -6.360353 -1.514587 -0.844514 7.538108 -6.837551 -0.048659 -3.922489 -0.372037 2.068827 0.000000 0.000000 0.000000 10.930879 8.190354 -3.045436 -85.760818 -24.414133 18.707894 -177.764510 -52.014914 179.972011 2.032079 -6.609112 -0.134499 -0.022486 1.184965 -0.000000 0.000000 0.000000 0.000000 0.000000 0.000000 0.000000 0.705481 -5.140904 -4.488965 87.974684 25.287770 27.412597 -178.563631 59.790002 179.823794 -12.088792 14.592864 -1.696657 0.169094 -1.116448 -0.000000 0.000000 0.000000 0.000000 0.000000 0.000000 0.000000 
3.568256 17.214970 0.918674 -17.305112 -88.328675 28.695050 -11.587031 1.579384 1.745496 -3.108376 13.191853 -16.646360 -2.387458 -1.197705 -2.487287 0.227982 2.227765 3.879292 0.668600 0.000000 -36.540201 9.169898 -1.817381 1.968878 4.429544 -5.872420 -11.083953 2.377176 1.555007 -1.077695 -0.383876 -7.141045 -0.858038 -2.347700 -0.000000 -43.478501 0.848720 -1.534540 -4.853038 -0.331542 -1.678369 -3.703696 -6.281236 -1.437326 -0.982201 7.458696 -6.557387 0.143344 -3.920437 -0.373551 2.121272 0.000000 0.000000 0.000000 10.871624 8.044679 -3.013247 -85.928117 -24.456392 19.084461 -177.813328 -52.171384 179.971411 2.037165 -6.626058 -0.135056 -0.019455 1.186011 -0.000000 0.000000 0.000000 0.000000 0.000000 0.000000 0.000000 0.778015 -4.815244 -4.510897 87.525412 25.894267 26.872521 -178.578174 60.266268 179.822784 -12.170968 14.540057 -1.701319 0.166869 -1.109602 -0.000000 0.000000 0.000000 0.000000 0.000000 0.000000 0.000000 
3.572546 17.215510 0.917489 -14.355089 -88.021580 25.776766 -11.539374 1.604388 1.810390 -3.141589 12.934414 -16.760247 -2.393624 -1.195839 -2.478491 0.215035 2.117950 3.945920 0.653300 0.000000 -36.534301 9.213023 -1.799849 1.944244 4.430381 -6.031864 -11.115459 2.360529 1.561432 -1.040929 -0.393764 -7.328369 -0.917115 -2.395500 0.000000 -43.432000 0.822823 -1.454327 -4.896136 -0.333504 -1.594327 -3.744676 -6.185142 -1.360198 -1.132158 7.360512 -6.236727 0.355584 -3.913375 -0.374960 2.179310 0.000000 0.000000 0.000000 10.789169 7.893997 -2.976265 -86.109110 -24.497902 19.487454 -177.866394 -52.334408 179.970602 2.054009 -6.640267 -0.136319 -0.016753 1.186897 -0.000000 0.000000 0.000000 0.000000 0.000000 0.000000 0.000000 0.832657 -4.446194 -4.535669 87.010865 26.576454 26.263414 -178.592442 60.818781 179.821961 -12.234417 14.463472 -1.700300 0.163141 -1.101168 -0.000000 0.000000 0.000000 0.000000 0.000000 0.000000 0.000000 
3.576918 17.216181 0.916248 -12.020879 -87.705520 23.469011 -11.491821 1.622972 1.870563 -3.178473 12.684458 -16.856172 -2.400493 -1.198487 -2.482971 0.201291 2.016653 4.023224 0.640400 0.000000 -36.526100 9.257761 -1.791163 1.923525 4.424626 -6.194823 -11.147046 2.344031 1.563965 -1.008977 -0.403810 -7.500555 -0.972244 -2.438800 0.000000 -43.386500 0.786180 -1.371991 -4.939452 -0.333007 -1.506783 -3.789063 -6.065341 -1.280907 -1.296023 7.241093 -5.888975 0.587310 -3.902992 -0.376388 2.242767 0.000000 0.000000 0.000000 10.691688 7.713953 -2.936034 -86.304499 -24.513006 19.891857 -177.929901 -52.484202 179.969579 2.077989 -6.651095 -0.137993 -0.013601 1.187460 -0.000000 0.000000 0.000000 0.000000 0.000000 0.000000 0.000000 0.881546 -4.046818 -4.558327 86.412181 27.366592 25.600319 -178.611463 61.477396 179.821360 -12.293355 14.345892 -1.693592 0.158728 -1.090489 -0.000000 0.000000 0.000000 0.000000 0.000000 0.000000 0.000000 
3.581315 17.216949 0.914925 -10.121021 -87.388373 21.593558 -11.445915 1.636843 1.927075 -3.222871 12.453697 -16.950045 -2.409482 -1.204496 -2.489136 0.186078 1.913248 4.105130 0.627800 0.000000 -36.517100 9.301984 -1.790213 1.909864 4.413341 -6.354447 -11.184929 2.327969 1.564264 -0.981677 -0.413736 -7.660562 -1.023763 -2.478900 -0.000000 -43.341000 0.740202 -1.285045 -4.988665 -0.330566 -1.413521 -3.836891 -5.924563 -1.196832 -1.468641 7.099414 -5.505834 0.832944 -3.886807 -0.377628 2.310140 0.000000 0.000000 0.000000 10.565826 7.535314 -2.893259 -86.509422 -24.534267 20.317864 -177.997451 -52.636707 179.968385 2.110228 -6.659920 -0.140280 -0.010576 1.187828 -0.000000 0.000000 0.000000 0.000000 0.000000 0.000000 0.000000 0.916304 -3.605431 -4.580254 85.726222 28.257716 24.865888 -178.632256 62.250526 179.820996 -12.340419 14.189953 -1.680601 0.153087 -1.077613 -0.000000 0.000000 0.000000 0.000000 0.000000 0.000000 0.000000 
3.585959 17.217812 0.913562 -8.538812 -87.075933 20.027468 -11.402583 1.647092 1.979335 -3.269459 12.234683 -17.025520 -2.418650 -1.213041 -2.505916 0.170931 1.819804 4.193813 0.617300 0.000000 -36.505900 9.345217 -1.794912 1.898469 4.396015 -6.515389 -11.220375 2.312595 1.561781 -0.955435 -0.422463 -7.802184 -1.070680 -2.514400 -0.000000 -43.299200 0.684375 -1.193020 -5.036940 -0.325702 -1.313691 -3.887407 -5.757624 -1.107155 -1.651707 6.933491 -5.097890 1.091447 -3.866449 -0.378797 2.381166 0.000000 0.000000 0.000000 10.418485 7.333830 -2.849519 -86.723817 -24.539265 20.742760 -178.073715 -52.775189 179.967058 2.144843 -6.666280 -0.142679 -0.006967 1.187858 -0.000000 0.000000 0.000000 0.000000 0.000000 0.000000 0.000000 0.947948 -3.133073 -4.594979 84.931148 29.273621 24.071714 -178.657728 63.168627 179.820811 -12.393953 13.983532 -1.662219 0.146989 -1.062091 -0.000000 0.000000 0.000000 0.000000 0.000000 0.000000 0.000000 
3.590675 17.218720 0.912154 -7.179951 -86.772681 18.681696 -11.361517 1.654822 2.029009 -3.321558 12.030302 -17.093549 -2.428787 -1.223841 -2.527642 0.155807 1.733835 4.285482 0.608499 0.000000 -36.493200 9.387217 -1.804646 1.892288 4.372771 -6.671683 -11.259348 2.297823 1.557691 -0.931548 -0.430403 -7.928873 -1.113542 -2.546301 -0.000000 -43.261900 0.621653 -1.094233 -5.089807 -0.318754 -1.206087 -3.939908 -5.568973 -1.010105 -1.837349 6.742943 -4.662382 1.354602 -3.839834 -0.379688 2.453594 0.000000 0.000000 0.000000 10.235850 7.141573 -2.806354 -86.940541 -24.564454 21.188260 -178.151041 -52.917856 179.965654 2.182849 -6.671861 -0.145291 -0.003461 1.187669 -0.000000 0.000000 0.000000 0.000000 0.000000 0.000000 0.000000 0.969239 -2.625457 -4.603117 84.025210 30.408096 23.206024 -178.685170 64.240056 179.820754 -12.451297 13.737418 -1.639450 0.140065 -1.044330 -0.000000 0.000000 0.000000 0.000000 0.000000 0.000000 0.000000 
3.595752 17.219656 0.910734 -6.008084 -86.480617 17.514693 -11.323344 1.659985 2.074639 -3.375133 11.839941 -17.146497 -2.438948 -1.236111 -2.555675 0.141185 1.658059 4.379773 0.601800 -0.000001 -36.477299 9.427501 -1.818294 1.888255 4.344657 -6.825213 -11.295697 2.283800 1.551512 -0.907950 -0.437090 -8.038581 -1.151140 -2.574299 0.000000 -43.231200 0.554360 -0.988408 -5.141715 -0.309023 -1.090422 -3.993770 -5.356577 -0.905305 -2.027015 6.526224 -4.205667 1.620767 -3.808090 -0.380379 2.527003 0.000000 0.000000 0.000000 10.023754 6.939455 -2.765448 -87.158532 -24.592770 21.636319 -178.232608 -53.052830 179.964214 2.219279 -6.676482 -0.147720 0.000471 1.187137 -0.000000 0.000000 0.000000 0.000000 0.000000 0.000000 0.000000 0.984932 -2.090066 -4.598356 82.991569 31.670670 22.273842 -178.715157 65.487686 179.820685 -12.528286 13.453206 -1.614387 0.132758 -1.024452 -0.000000 0.000000 0.000000 0.000000 0.000000 0.000000 0.000000 
3.601176 17.220603 0.909325 -4.980955 -86.201909 16.485965 -11.287960 1.662745 2.116148 -3.430432 11.664258 -17.186986 -2.449171 -1.249521 -2.588096 0.127218 1.592439 4.474530 0.596899 0.000000 -36.458100 9.465928 -1.835115 1.886367 4.312262 -6.973728 -11.330200 2.270476 1.543562 -0.884783 -0.442525 -8.132886 -1.183548 -2.598900 0.000001 -43.209101 0.485867 -0.874982 -5.192330 -0.296301 -0.966471 -4.048365 -5.123095 -0.792207 -2.218111 6.283013 -3.727699 1.885342 -3.770916 -0.380817 2.600137 0.000000 0.000000 0.000000 9.780370 6.732561 -2.728098 -87.373124 -24.630329 22.087411 -178.316443 -53.182753 179.962773 2.253215 -6.681145 -0.149963 0.004710 1.186261 -0.000000 0.000000 0.000000 0.000000 0.000000 0.000000 0.000000 0.991850 -1.527757 -4.577628 81.822431 33.056223 21.270202 -178.746580 66.922219 179.820472 -12.630432 13.142757 -1.588833 0.125023 -1.003004 -0.000000 0.000000 0.000000 0.000000 0.000000 0.000000 0.000000 
